<?xml version="1.0" encoding="utf-8"?>
<!-- Generator: Adobe Illustrator 19.1.0, SVG Export Plug-In . SVG Version: 6.00 Build 0)  -->
<svg version="1.1" id="Layer_1" xmlns="http://www.w3.org/2000/svg" xmlns:xlink="http://www.w3.org/1999/xlink" x="0px" y="0px"
	 viewBox="0 0 2272 1872" enable-background="new 0 0 2272 1872" xml:space="preserve">
<linearGradient id="SVGID_1_" gradientUnits="userSpaceOnUse" x1="1136" y1="1872" x2="1136" y2="-5.100173e-08">
	<stop  offset="0" style="stop-color:#FFFFFF"/>
	<stop  offset="0.2798" style="stop-color:#E5713D"/>
	<stop  offset="0.4994" style="stop-color:#755172"/>
	<stop  offset="0.7347" style="stop-color:#3B4472"/>
	<stop  offset="1" style="stop-color:#1C1841"/>
</linearGradient>
<rect fill="url(#SVGID_1_)" width="2272" height="1872"/>
<g opacity="0.4">
	<path fill="#FFFFFF" d="M48.6,777.2l347-170.9L53.6,787c-2.7,1.4-6,0.4-7.4-2.3c-1.4-2.7-0.4-6,2.3-7.4
		C48.5,777.3,48.5,777.2,48.6,777.2z"/>
</g>
<g>
	<path opacity="5.000000e-02" fill="#BB6264" d="M44.9,1251.3C44.9,950,167,677.2,364.4,479.7S834.7,160.1,1136,160.1
		s574.1,122.1,771.6,319.6c197.5,197.5,319.6,470.2,319.6,771.6"/>
	<path opacity="0.1857" fill="#C3695E" d="M145.5,1251.3c0-273.5,110.9-521.1,290.1-700.4S862.5,260.8,1136,260.8
		s521.1,110.9,700.4,290.1s290.1,426.8,290.1,700.4"/>
	<path opacity="0.3214" fill="#CC7059" d="M506.8,1880.4c-161-161-260.6-383.5-260.6-629.2s99.6-468.1,260.6-629.2
		S890.3,361.5,1136,361.5s468.1,99.6,629.2,260.6s260.6,383.5,260.6,629.2s-99.6,468.1-260.6,629.2"/>
	<path opacity="0.4571" fill="#D47753" d="M578.1,1809.2c-142.8-142.8-231.1-340.1-231.1-557.9s88.3-415.2,231.1-557.9
		S918.1,462.2,1136,462.2s415.2,88.3,557.9,231.1s231.1,340.1,231.1,557.9s-88.3,415.2-231.1,557.9"/>
	<path opacity="0.5929" fill="#DD7F4E" d="M649.3,1738c-124.6-124.6-201.6-296.7-201.6-486.7s77-362.2,201.6-486.7
		S945.9,562.9,1136,562.9s362.2,77,486.7,201.6s201.6,296.7,201.6,486.7s-77,362.2-201.6,486.7"/>
	<path opacity="0.7286" fill="#E58648" d="M1723.7,1251.3c0,162.3-65.8,309.2-172.1,415.5c-106.3,106.3-253.3,172.1-415.5,172.1
		s-309.2-65.8-415.5-172.1c-106.3-106.3-172.1-253.3-172.1-415.5s65.8-309.2,172.1-415.5S973.7,663.6,1136,663.6
		s309.2,65.8,415.5,172.1C1657.9,942.1,1723.7,1089,1723.7,1251.3z"/>
	<path opacity="0.8643" fill="#EE8D43" d="M1623,1251.3c0,134.5-54.5,256.2-142.6,344.3c-88.1,88.1-209.9,142.6-344.3,142.6
		s-256.2-54.5-344.3-142.6c-88.1-88.1-142.6-209.9-142.6-344.3s54.5-256.2,142.6-344.3s209.9-142.6,344.3-142.6
		s256.2,54.5,344.3,142.6C1568.5,995.1,1623,1116.8,1623,1251.3z"/>
	<path fill="#F6943D" d="M1522.3,1251.3c0,106.7-43.2,203.2-113.1,273.1c-69.9,69.9-166.5,113.1-273.1,113.1
		s-203.2-43.2-273.1-113.1c-69.9-69.9-113.1-166.5-113.1-273.1c0-106.7,43.2-203.2,113.1-273.1S1029.3,865,1136,865
		s203.2,43.2,273.1,113.1S1522.3,1144.6,1522.3,1251.3z"/>
</g>
<path fill="#2B2342" d="M2203.2,1207.1c-20.8,4.2-45-2.2-66.5,0.8c-15.8,2.2-32.2-0.4-47.8,3.3c-13.7,3.2-21.6,10.7-33.2,17.9
	c-21.1,13-49.2,1.8-74.8,7c-19.6,3.9-42.7,9.3-58.2,23.1c-8.1,7.2-12.6,18.5-24.2,20.7c-14.9,2.8-29.6-10.9-44-9.4
	c-16.5,1.7-30.8,13.3-47.7,15.2c-24.7,2.8-48.8-3.2-73.5,1.3c-20.6,3.8-34.1,18.5-55.4,18.4c-13.9-0.1-27.2-4.9-41-1.5
	c-17.4,4.2-31.2,18.4-49,21h131.6c3.3-2.5,6.5-4.9,9.3-8.5c10.2-12.6,17.3-9.1,34.2-8.4c21.1,0.8,39.3-2.9,59.7-6.9
	c28.8-5.7,57.2,4.4,85.2-2c5.6-1.3,13.3-3.5,19.1-1.7c10.4,3.2,16.5,15.9,27.8,17.8c14.3,2.4,23.4-13.2,31.4-23.1
	c12.7-15.9,23.1-35,41.6-45c20-10.7,40.9-1.7,60.1-9.1c11.9-4.6,12.2-17.1,26.9-19.7c9.7-1.7,30.2-4.2,40-1
	c5.6,1.9,9.2,7.6,13.6,11.2c15.7,12.7,31.4,22.9,50.8,28.3c13.2,3.6,34.6,8.4,45.7,17c3.7,2.9,5.6,6.4,7,10.3v-106.1
	C2248.4,1176.2,2226.7,1202.4,2203.2,1207.1z"/>
<g>
	<path fill="#2B2342" d="M622.4,1325.1c15.5-0.7,28.3-6.4,44.3-3c0.7,0.2,1.5,0.3,2.2,0.5c-6-5.9-13.4-10.2-22.2-11.2
		c-17.1-1.9-29.6,2.9-46.7-1.4c-10.8-2.7-21.1-3.2-31.7-2C585.7,1316.2,602.3,1326,622.4,1325.1z"/>
	<path fill="#2B2342" d="M2.3,1284.8c16.1-6.9,32.8-22.1,50.8-20.6c14.7,1.3,27.8,8,42.9,6.9c13.9-1,26.1-11.7,39.8-11.9
		c8.8-0.2,14,7.1,22.3,7.3c2.2,0.1,4.5-0.3,6.8-1.1c-3.9-1.5-7.9-4.3-13-9c-8.6-8-15.4-17.3-27-19.9c-17.2-4-38,5.2-54.5-1.8
		c-6.9-2.9-14-12.8-20.8-16.8c-15.6-9.2-33.5-6.3-49.6-12.9l2.3,133.5V1284.8z"/>
	<path fill="#2B2342" d="M346.2,1275.8c14.1,3.1,23,13.3,34.9,20.2c24.4,14,51.3-3,77.3,6.9c6.8,2.6,14.7,11.2,21.9,11.5
		c6.3,0.2,13.8-4,21.6-8.2c-1.6-0.6-3.3-1.3-5-2.1c-8.8-3.9-16.4-10.2-25.7-13.2c-14-4.6-22.6,0.2-36.3,1.1
		c-26.7,1.8-53.6-18-79.7-23.6c-16.8-3.6-30.3,0.1-44.5,4.2C322.5,1274.9,334.6,1273.3,346.2,1275.8z"/>
</g>
<polygon fill="#4E2D49" points="2261,1240.5 2239,1240.5 2171.3,1264.1 2171.3,1393.1 2124.1,1393.1 2124.1,1286.1 2095.8,1286.1 
	2095.8,1175.3 2064,1175.3 2059.7,1005.1 2054.6,1005.1 2050.4,1175.3 2028.8,1175.3 2025.3,1033.9 2020.2,1033.9 2016.6,1175.3 
	1987.1,1175.3 1987.1,1393.1 1919.5,1393.1 1919.5,1336.5 1909.4,1336.5 1907,1296.7 1901.9,1296.7 1899.4,1336.5 1896.6,1336.5 
	1894.2,1296.7 1889.1,1296.7 1886.7,1336.5 1789.4,1336.5 1789.4,1497 1762.1,1497 1762.1,1355.4 1703.5,1296.7 1644.9,1355.4 
	1608.9,1355.4 1608.9,1114.7 1550.1,1114.7 1550.1,1072.1 1449.4,1072.1 1449.4,1114.7 1398.4,1114.7 1397.5,1098.9 1392.4,1098.9 
	1390,1137.1 1373.2,1137.1 1370.8,1098.9 1365.8,1098.9 1363.4,1137.1 1346.5,1137.1 1344.2,1098.9 1339.1,1098.9 1336.7,1137.1 
	1319.9,1137.1 1317.5,1098.9 1312.4,1098.9 1310.1,1137.1 1293.2,1137.1 1290.8,1098.9 1285.8,1098.9 1283.4,1137.1 1266.5,1137.1 
	1264.2,1098.9 1259.1,1098.9 1256.7,1137.1 1237.5,1137.1 1237.5,1393.1 1204.9,1393.1 1204.9,910.5 1158,876.6 1156.1,844.6 
	1151,844.6 1149.7,866.4 1115.1,866.4 1112,815.6 1106.9,815.6 1103.8,866.4 1066.8,866.4 1065.3,840.6 1060.2,840.6 1058.6,866.4 
	1031.8,866.4 1031.8,1393.1 996.1,1393.1 996.1,1187.5 944.5,1077 940,1004.2 932.6,1004.2 928.2,1076.9 876.5,1187.5 876.5,1309.2 
	849.2,1309.2 849.2,1271.4 849.2,1038.5 849.2,993.2 836.7,993.2 829.8,882.8 822.5,882.8 815.7,993.2 803.1,993.2 803.1,1038.5 
	756.9,1038.5 756.9,1271.4 702.3,1271.4 702.3,1296.6 572.3,1296.6 572.3,1365.8 507.2,1279.8 498.8,1279.8 425.3,1362.7 
	360.3,1362.7 360.3,1279.8 360.3,1242 286.9,1242 286.9,1279.8 265.9,1279.8 213.4,1279.8 119,1279.8 119,1340.7 0,1340.7 0,1686.9 
	119,1686.9 213.4,1686.9 265.9,1686.9 360.3,1686.9 425.3,1686.9 507.2,1686.9 572.3,1686.9 702.3,1686.9 719.1,1686.9 
	729.6,1686.9 849.2,1686.9 876.5,1686.9 936.3,1686.9 996.1,1686.9 1031.8,1686.9 1144.1,1686.9 1153.5,1686.9 1204.9,1686.9 
	1237.5,1686.9 1397,1686.9 1449.4,1686.9 1550.1,1686.9 1608.9,1686.9 1724.3,1686.9 1762.1,1686.9 1789.4,1686.9 1854.4,1686.9 
	1919.5,1686.9 2171.3,1686.9 2194.9,1686.9 2272,1686.9 2273,1264.1 "/>
<polygon fill="#2B2342" points="2209.1,1459.8 2209.1,1671.7 2183.9,1671.7 2183.9,1287.7 2156.6,1273 2154.5,1226.8 2072.7,1226.8 
	2072.7,1468.2 1974.1,1468.2 1974.1,1419.9 1751.6,1419.9 1751.6,1389.4 1673.9,1367.3 1673.9,1321.3 1636.2,1296.1 1499.8,1296.1 
	1499.8,1562.6 1470.4,1562.6 1470.4,1449.3 1369.7,1449.3 1369.7,1351.3 1212.3,1321.3 1153.5,1340.2 1153.5,1541.6 1124.2,1541.6 
	1124.2,1485 1065.4,1485 1065.4,1430.4 1017.5,1430.4 941.6,1476.1 941.6,1459.8 926.9,1459.8 926.9,1321.3 897.8,1321.3 
	892.8,1240.9 885.4,1240.9 880.5,1321.3 855.8,1321.3 850.8,1240.9 843.5,1240.9 838.5,1321.3 817.8,1321.3 817.8,1459.8 
	803.1,1459.8 803.1,1602.5 767.4,1602.5 767.4,1449.3 645.7,1449.3 645.7,1577.3 574.4,1577.3 574.4,1329.7 551.3,1329.7 
	551.3,1134 511.4,1134 511.4,983.5 510.8,983.5 504.6,883.5 497.2,883.5 491.1,983.5 485.9,983.5 479.4,794.6 472.1,794.6 
	465.6,983.5 464.9,983.5 458.4,794.6 451.1,794.6 444.6,983.5 439.4,983.5 433.2,883.5 425.9,883.5 419.7,983.5 419.1,983.5 
	419.1,1134 400.2,1134 400.2,1329.7 377.1,1329.7 377.1,1562.6 291.1,1562.6 291.1,1430.4 268,1430.4 268,1296.1 257.5,1241.6 
	183,1241.6 172.5,1296.1 172.5,1430.4 149.4,1430.4 149.4,1468.2 77,1468.2 77,1529 0,1529 0,1875.3 77,1875.3 149.4,1875.3 
	172.5,1875.3 291.1,1875.3 377.1,1875.3 574.4,1875.3 645.7,1875.3 767.4,1875.3 803.1,1875.3 889.1,1875.3 926.9,1875.3 
	941.6,1875.3 1065.4,1875.3 1124.2,1875.3 1153.5,1875.3 1182.9,1875.3 1212.3,1875.3 1369.7,1875.3 1470.4,1875.3 1499.8,1875.3 
	1571.1,1875.3 1636.2,1875.3 1673.9,1875.3 1751.6,1875.3 1961.4,1875.3 1974.1,1875.3 2072.7,1875.3 2183.9,1875.3 2209.1,1875.3 
	2272,1875.3 2272,1671.7 2272,1459.8 "/>
<polygon opacity="5.000000e-02" fill="#FFFFFF" points="1516,897.4 1480.4,835.7 1516,774.1 1587.1,774.1 1622.7,835.7 
	1587.1,897.4 "/>
<polygon opacity="5.000000e-02" fill="#FFFFFF" points="1748,796.2 1642,714.6 1659.6,582.1 1783.2,531.1 1889.2,612.6 
	1871.6,745.1 "/>
<polygon opacity="5.000000e-02" fill="#FFFFFF" points="703.1,895 624.1,834.2 637.2,735.4 729.4,697.3 808.5,758.1 795.3,857 "/>
<polygon opacity="5.000000e-02" fill="#FFFFFF" points="0,112.2 0,849.7 18.6,864 393.3,709.4 446.7,307.6 125.4,60.4 "/>
<polygon opacity="5.000000e-02" fill="#FFFFFF" points="2272,160.1 2036.8,160.6 1905.1,389.7 2037.7,618.4 2272,618 "/>
<g>
	<g>
		<path fill="#FFFFFF" d="M607.8,103.7c6.4,0,6.4-10,0-10C601.3,93.7,601.3,103.7,607.8,103.7L607.8,103.7z"/>
	</g>
</g>
<g>
	<g>
		<path fill="#FFFFFF" d="M1753.9,151.7c6.4,0,6.4-10,0-10C1747.4,141.7,1747.4,151.7,1753.9,151.7L1753.9,151.7z"/>
	</g>
</g>
<g>
	<g>
		<path fill="#FFFFFF" d="M64.7,160.7c6.4,0,6.4-10,0-10C58.3,150.7,58.3,160.7,64.7,160.7L64.7,160.7z"/>
	</g>
</g>
<g>
	<g>
		<path fill="#FFFFFF" d="M142.7,655.8c6.4,0,6.4-10,0-10C136.3,645.8,136.3,655.8,142.7,655.8L142.7,655.8z"/>
	</g>
</g>
<g>
	<g>
		<path fill="#FFFFFF" d="M1885.9,292.8c6.4,0,6.4-10,0-10C1879.5,282.8,1879.4,292.8,1885.9,292.8L1885.9,292.8z"/>
	</g>
</g>
<g>
	<g>
		<path fill="#FFFFFF" d="M1447.9,127.7c6.4,0,6.4-10,0-10C1441.4,117.7,1441.4,127.7,1447.9,127.7L1447.9,127.7z"/>
	</g>
</g>
<g>
	<g>
		<path fill="#FFFFFF" d="M2209.9,58.7c6.4,0,6.4-10,0-10C2203.5,48.7,2203.5,58.7,2209.9,58.7L2209.9,58.7z"/>
	</g>
</g>
<g>
	<g>
		<path fill="#FFFFFF" d="M2185.9,784.8c6.4,0,6.4-10,0-10C2179.5,774.8,2179.5,784.8,2185.9,784.8L2185.9,784.8z"/>
	</g>
</g>
<g>
	<g>
		<path fill="#FFFFFF" d="M1009.8,34.7c6.4,0,6.4-10,0-10C1003.4,24.7,1003.4,34.7,1009.8,34.7L1009.8,34.7z"/>
	</g>
</g>
<g>
	<g>
		<path fill="#FFFFFF" d="M799.8,145.7c6.4,0,6.4-10,0-10C793.4,135.7,793.3,145.7,799.8,145.7L799.8,145.7z"/>
	</g>
</g>
<g>
	<g>
		<path fill="#FFFFFF" d="M940.8,76.7c6.4,0,6.4-10,0-10C934.4,66.7,934.4,76.7,940.8,76.7L940.8,76.7z"/>
	</g>
</g>
<g opacity="0.4">
	<path fill="#FFFFFF" d="M575,424.7l536.8-264.3l-529,279.4c-4.2,2.2-9.3,0.6-11.5-3.5c-2.2-4.2-0.6-9.3,3.5-11.5
		C574.9,424.7,575,424.7,575,424.7z"/>
</g>
<g opacity="0.4">
	<path fill="#FFFFFF" d="M1641.4,236.7L1975.1,76l-325.9,175.8c-4.1,2.2-9.3,0.7-11.5-3.4s-0.7-9.3,3.4-11.5
		C1641.2,236.8,1641.3,236.7,1641.4,236.7z"/>
</g>
<g opacity="0.4">
	<path fill="#FFFFFF" d="M1720.5,727.3l163.3-73.8l-155.6,88.9c-4.1,2.3-9.3,0.9-11.6-3.2c-2.3-4.1-0.9-9.3,3.2-11.6
		C1720,727.6,1720.2,727.4,1720.5,727.3z"/>
</g>
</svg>
