<?xml version="1.0" encoding="UTF-8" standalone="no"?>
<!DOCTYPE svg PUBLIC "-//W3C//DTD SVG 1.1//EN" "http://www.w3.org/Graphics/SVG/1.1/DTD/svg11.dtd">
<svg version="1.1" xmlns="http://www.w3.org/2000/svg" xmlns:xlink="http://www.w3.org/1999/xlink" preserveAspectRatio="xMidYMid meet" viewBox="0 0 640 640" width="1440" height="640"><defs><path d="M598.7 219.03C598.7 267.93 558.99 307.64 510.09 307.64C461.19 307.64 421.48 267.93 421.48 219.03C421.48 170.13 461.19 130.42 510.09 130.42C558.99 130.42 598.7 170.13 598.7 219.03Z" id="be9pL0ael"></path><path d="M564.7 222.12C564.7 251.69 540.23 275.7 510.09 275.7C479.95 275.7 455.48 251.69 455.48 222.12C455.48 192.55 479.95 168.55 510.09 168.55C540.23 168.55 564.7 192.55 564.7 222.12Z" id="e2d87wudYm"></path><path d="M546.15 222.12C546.15 241.74 529.99 257.67 510.09 257.67C490.19 257.67 474.03 241.74 474.03 222.12C474.03 202.5 490.19 186.58 510.09 186.58C529.99 186.58 546.15 202.5 546.15 222.12Z" id="j1MP41k4Ym"></path></defs><g><g><g><use xlink:href="#be9pL0ael" opacity="1" fill="#fff3d7" fill-opacity="1"></use></g><g><use xlink:href="#e2d87wudYm" opacity="1" fill="#fbd97d" fill-opacity="1"></use></g><g><use xlink:href="#j1MP41k4Ym" opacity="1" fill="#ff4208" fill-opacity="1"></use></g></g></g></svg>